<svg width="37" height="37" viewBox="0 0 37 37" fill="none" xmlns="http://www.w3.org/2000/svg">
<path d="M21.8898 18.5305L36.2968 4.12304C37.2344 3.18589 37.2344 1.67065 36.2968 0.733501C35.3597 -0.203647 33.8445 -0.203647 32.9073 0.733501L18.4998 15.141L4.09273 0.733501C3.15514 -0.203647 1.64034 -0.203647 0.703191 0.733501C-0.234397 1.67065 -0.234397 3.18589 0.703191 4.12304L15.1103 18.5305L0.703191 32.938C-0.234397 33.8752 -0.234397 35.3904 0.703191 36.3276C1.17023 36.7951 1.78431 37.0299 2.39796 37.0299C3.01161 37.0299 3.62525 36.7951 4.09273 36.3276L18.4998 21.9201L32.9073 36.3276C33.3748 36.7951 33.9884 37.0299 34.6021 37.0299C35.2157 37.0299 35.8294 36.7951 36.2968 36.3276C37.2344 35.3904 37.2344 33.8752 36.2968 32.938L21.8898 18.5305Z" fill="white"/>
</svg>
